####
#
# OBJ File Generated by Meshlab
#
####
# Object sphere.obj
#
# Vertices: 162
# Faces: 320
#
####
vn -0.000001 -1.000000 0.000000
v 0.000000 -1.500000 0.000000
vn 0.723607 -0.447220 0.525726
v 1.085410 -0.670830 0.788588
vn -0.276388 -0.447220 0.850649
v -0.414582 -0.670830 1.275974
vn -0.894426 -0.447215 0.000000
v -1.341639 -0.670824 0.000000
vn -0.276388 -0.447220 -0.850649
v -0.414582 -0.670830 -1.275974
vn 0.723607 -0.447220 -0.525726
v 1.085410 -0.670830 -0.788588
vn 0.276388 0.447220 0.850649
v 0.414582 0.670830 1.275974
vn -0.723607 0.447220 0.525726
v -1.085410 0.670830 0.788588
vn -0.723607 0.447220 -0.525726
v -1.085410 0.670830 -0.788588
vn 0.276388 0.447220 -0.850649
v 0.414582 0.670830 -1.275974
vn 0.894426 0.447215 0.000000
v 1.341639 0.670824 0.000000
vn 0.000001 1.000000 0.000000
v 0.000000 1.500000 0.000000
vn -0.230791 -0.664973 0.710314
v -0.349233 -0.986278 1.074844
vn -0.162457 -0.850654 0.499996
v -0.243684 -1.275981 0.749992
vn -0.080577 -0.965406 0.247989
v -0.116410 -1.451925 0.358279
vn 0.210953 -0.965406 0.153264
v 0.304771 -1.451925 0.221427
vn 0.425323 -0.850654 0.309012
v 0.637985 -1.275981 0.463517
vn 0.604231 -0.664972 0.438995
v 0.914321 -0.986278 0.664284
vn 0.523658 -0.503819 0.686986
v 0.797912 -0.753453 1.022568
vn 0.262869 -0.525737 0.809012
v 0.394304 -0.788607 1.213518
vn -0.019839 -0.503819 0.863581
v -0.044459 -0.753453 1.296276
vn 0.815185 -0.503818 -0.285730
v 1.219094 -0.753451 -0.442857
vn 0.850649 -0.525734 0.000000
v 1.275972 -0.788604 0.000000
vn 0.815185 -0.503817 0.285730
v 1.219094 -0.753451 0.442857
vn 0.210953 -0.965406 -0.153265
v 0.304771 -1.451925 -0.221427
vn 0.425323 -0.850654 -0.309012
v 0.637985 -1.275981 -0.463517
vn 0.604231 -0.664972 -0.438995
v 0.914321 -0.986278 -0.664284
vn -0.746871 -0.664969 -0.000000
v -1.130163 -0.986272 0.000000
vn -0.525729 -0.850652 0.000001
v -0.788595 -1.275978 0.000000
vn -0.260752 -0.965406 0.000001
v -0.376720 -1.451923 0.000000
vn -0.491546 -0.503819 0.710316
v -0.725956 -0.753453 1.074847
vn -0.688190 -0.525735 0.499998
v -1.032284 -0.788604 0.749995
vn -0.827449 -0.503815 0.247990
v -1.246577 -0.753448 0.358279
vn -0.230791 -0.664973 -0.710314
v -0.349233 -0.986278 -1.074844
vn -0.162456 -0.850654 -0.499996
v -0.243684 -1.275981 -0.749992
vn -0.080576 -0.965406 -0.247989
v -0.116410 -1.451925 -0.358279
vn -0.827449 -0.503815 -0.247990
v -1.246577 -0.753448 -0.358279
vn -0.688190 -0.525735 -0.499998
v -1.032284 -0.788604 -0.749995
vn -0.491546 -0.503819 -0.710316
v -0.725956 -0.753453 -1.074847
vn -0.019839 -0.503819 -0.863581
v -0.044459 -0.753453 -1.296276
vn 0.262869 -0.525737 -0.809012
v 0.394304 -0.788607 -1.213518
vn 0.523658 -0.503819 -0.686985
v 0.797912 -0.753453 -1.022568
vn 0.957826 0.243061 0.153265
v 1.434939 0.376723 0.221427
vn 0.951058 0.000000 0.309013
v 1.426587 0.000000 0.463520
vn 0.864987 -0.243063 0.438996
v 1.291047 -0.376727 0.664287
vn 0.864987 -0.243063 -0.438997
v 1.291047 -0.376727 -0.664287
vn 0.951058 0.000000 -0.309014
v 1.426587 0.000000 -0.463520
vn 0.957826 0.243061 -0.153265
v 1.434939 0.376723 -0.221427
vn 0.150217 0.243063 0.958309
v 0.232822 0.376728 1.433133
vn 0.000000 0.000000 1.000000
v 0.000000 0.000000 1.500000
vn -0.150217 -0.243063 0.958308
v -0.232822 -0.376728 1.433133
vn 0.684811 -0.243065 0.686988
v 1.030738 -0.376728 1.022573
vn 0.587785 0.000000 0.809017
v 0.881679 0.000000 1.213526
vn 0.441747 0.243064 0.863585
v 0.654010 0.376728 1.296282
vn -0.864987 0.243062 0.438997
v -1.291047 0.376727 0.664287
vn -0.951057 -0.000001 0.309014
v -1.426587 0.000000 0.463520
vn -0.957826 -0.243061 0.153265
v -1.434939 -0.376723 0.221427
vn -0.441747 -0.243064 0.863585
v -0.654010 -0.376728 1.296282
vn -0.587786 0.000000 0.809017
v -0.881679 0.000000 1.213526
vn -0.684812 0.243064 0.686988
v -1.030738 0.376728 1.022573
vn -0.684812 0.243064 -0.686988
v -1.030738 0.376728 -1.022573
vn -0.587786 0.000000 -0.809016
v -0.881679 0.000000 -1.213526
vn -0.441747 -0.243064 -0.863585
v -0.654010 -0.376728 -1.296282
vn -0.957826 -0.243061 -0.153265
v -1.434939 -0.376723 -0.221427
vn -0.951057 -0.000001 -0.309014
v -1.426587 0.000000 -0.463520
vn -0.864987 0.243062 -0.438997
v -1.291047 0.376727 -0.664287
vn 0.441747 0.243064 -0.863585
v 0.654010 0.376728 -1.296282
vn 0.587786 0.000000 -0.809017
v 0.881679 0.000000 -1.213526
vn 0.684812 -0.243064 -0.686988
v 1.030738 -0.376728 -1.022573
vn -0.150216 -0.243064 -0.958308
v -0.232822 -0.376728 -1.433133
vn 0.000001 0.000000 -1.000000
v 0.000000 0.000000 -1.500000
vn 0.150217 0.243063 -0.958308
v 0.232822 0.376728 -1.433133
vn 0.827449 0.503815 0.247990
v 1.246577 0.753448 0.358279
vn 0.688190 0.525735 0.499998
v 1.032284 0.788604 0.749995
vn 0.491547 0.503819 0.710316
v 0.725956 0.753453 1.074847
vn 0.019838 0.503819 0.863581
v 0.044459 0.753453 1.296276
vn -0.262869 0.525737 0.809012
v -0.394304 0.788607 1.213518
vn -0.523658 0.503819 0.686986
v -0.797912 0.753453 1.022568
vn -0.815184 0.503818 0.285731
v -1.219094 0.753451 0.442857
vn -0.850649 0.525735 0.000000
v -1.275972 0.788604 0.000000
vn -0.815185 0.503818 -0.285730
v -1.219094 0.753451 -0.442857
vn -0.523658 0.503819 -0.686986
v -0.797912 0.753453 -1.022568
vn -0.262869 0.525737 -0.809012
v -0.394304 0.788607 -1.213518
vn 0.019838 0.503819 -0.863581
v 0.044459 0.753453 -1.296276
vn 0.491546 0.503819 -0.710316
v 0.725956 0.753453 -1.074847
vn 0.688189 0.525735 -0.499998
v 1.032284 0.788604 -0.749995
vn 0.827449 0.503815 -0.247990
v 1.246577 0.753448 -0.358279
vn 0.080576 0.965406 0.247989
v 0.116410 1.451925 0.358279
vn 0.162456 0.850654 0.499996
v 0.243684 1.275981 0.749992
vn 0.230791 0.664973 0.710314
v 0.349233 0.986278 1.074844
vn 0.746871 0.664969 0.000000
v 1.130163 0.986272 0.000000
vn 0.525729 0.850652 0.000000
v 0.788595 1.275978 0.000000
vn 0.260752 0.965406 0.000000
v 0.376720 1.451923 0.000000
vn -0.210952 0.965406 0.153265
v -0.304771 1.451925 0.221427
vn -0.425323 0.850654 0.309012
v -0.637985 1.275981 0.463517
vn -0.604231 0.664972 0.438995
v -0.914321 0.986278 0.664284
vn -0.210952 0.965406 -0.153265
v -0.304771 1.451925 -0.221427
vn -0.425323 0.850654 -0.309012
v -0.637985 1.275981 -0.463517
vn -0.604231 0.664972 -0.438995
v -0.914321 0.986278 -0.664284
vn 0.080576 0.965406 -0.247989
v 0.116410 1.451925 -0.358279
vn 0.162456 0.850654 -0.499996
v 0.243684 1.275981 -0.749992
vn 0.230791 0.664973 -0.710314
v 0.349233 0.986278 -1.074844
vn 0.368206 0.890426 -0.267518
v 0.542700 1.341644 -0.394295
vn 0.631748 0.727549 -0.267519
v 0.957291 1.085415 -0.394296
vn 0.449644 0.727551 -0.518160
v 0.670814 1.085418 -0.788592
vn -0.140644 0.890426 -0.432851
v -0.207296 1.341645 -0.637978
vn -0.059208 0.727552 -0.683493
v -0.079185 1.085418 -1.032277
vn -0.353854 0.727552 -0.587755
v -0.542706 1.085418 -0.881667
vn -0.455129 0.890426 0.000000
v -0.670815 1.341644 0.000000
vn -0.668338 0.727550 -0.154904
v -1.006226 1.085417 -0.243686
vn -0.668338 0.727550 0.154904
v -1.006226 1.085417 0.243686
vn -0.140644 0.890426 0.432851
v -0.207296 1.341645 0.637978
vn -0.353854 0.727552 0.587755
v -0.542706 1.085418 0.881667
vn -0.059208 0.727552 0.683493
v -0.079185 1.085418 1.032277
vn 0.368206 0.890426 0.267518
v 0.542700 1.341644 0.394295
vn 0.449644 0.727551 0.518160
v 0.670814 1.085418 0.788592
vn 0.631748 0.727549 0.267519
v 0.957291 1.085415 0.394296
vn 0.859318 0.272417 -0.432854
v 1.292706 0.414594 -0.637983
vn 0.808987 0.008873 -0.587759
v 1.213529 0.000000 -0.881673
vn 0.677215 0.272418 -0.683497
v 1.006232 0.414595 -1.032284
vn -0.146129 0.272418 -0.951018
v -0.207299 0.414595 -1.426582
vn -0.309004 0.008873 -0.951019
v -0.463524 0.000000 -1.426586
vn -0.440777 0.272418 -0.855280
v -0.670823 0.414595 -1.275974
vn -0.949628 0.272417 -0.154904
v -1.420820 0.414594 -0.243687
vn -0.999961 0.008874 0.000000
v -1.500000 0.000002 0.000000
vn -0.949628 0.272418 0.154904
v -1.420820 0.414595 0.243687
vn -0.440778 0.272418 0.855280
v -0.670824 0.414595 1.275972
vn -0.309005 0.008873 0.951019
v -0.463526 -0.000002 1.426584
vn -0.146130 0.272417 0.951018
v -0.207299 0.414595 1.426582
vn 0.677215 0.272418 0.683498
v 1.006230 0.414594 1.032285
vn 0.808987 0.008872 0.587760
v 1.213529 -0.000003 0.881674
vn 0.859317 0.272416 0.432855
v 1.292706 0.414591 0.637985
vn 0.309005 -0.008873 -0.951019
v 0.463526 0.000000 -1.426584
vn 0.440778 -0.272418 -0.855280
v 0.670824 -0.414597 -1.275972
vn 0.146130 -0.272418 -0.951018
v 0.207299 -0.414597 -1.426582
vn -0.808987 -0.008873 -0.587760
v -1.213527 0.000000 -0.881674
vn -0.677214 -0.272418 -0.683498
v -1.006228 -0.414595 -1.032287
vn -0.859317 -0.272417 -0.432856
v -1.292704 -0.414594 -0.637986
vn -0.808987 -0.008873 0.587760
v -1.213527 0.000000 0.881674
vn -0.859317 -0.272417 0.432856
v -1.292704 -0.414594 0.637986
vn -0.677214 -0.272418 0.683498
v -1.006228 -0.414595 1.032287
vn 0.309005 -0.008873 0.951019
v 0.463526 0.000000 1.426584
vn 0.146130 -0.272418 0.951018
v 0.207299 -0.414597 1.426582
vn 0.440778 -0.272418 0.855280
v 0.670824 -0.414597 1.275972
vn 0.999961 -0.008874 0.000000
v 1.500000 0.000000 0.000000
vn 0.949628 -0.272417 0.154903
v 1.420820 -0.414594 0.243687
vn 0.949628 -0.272417 -0.154903
v 1.420820 -0.414594 -0.243687
vn 0.353853 -0.727552 -0.587756
v 0.542704 -1.085418 -0.881668
vn 0.140644 -0.890426 -0.432853
v 0.207296 -1.341644 -0.637982
vn 0.059206 -0.727551 -0.683494
v 0.079183 -1.085417 -1.032279
vn -0.449645 -0.727551 -0.518159
v -0.670816 -1.085418 -0.788590
vn -0.368207 -0.890426 -0.267518
v -0.542701 -1.341644 -0.394295
vn -0.631749 -0.727548 -0.267518
v -0.957292 -1.085413 -0.394295
vn -0.631748 -0.727549 0.267519
v -0.957292 -1.085413 0.394296
vn -0.368207 -0.890425 0.267519
v -0.542701 -1.341642 0.394296
vn -0.449645 -0.727550 0.518160
v -0.670816 -1.085415 0.788594
vn 0.668338 -0.727550 -0.154903
v 1.006226 -1.085417 -0.243686
vn 0.668339 -0.727549 0.154904
v 1.006227 -1.085415 0.243687
vn 0.455130 -0.890425 0.000001
v 0.670816 -1.341642 0.000002
vn 0.059207 -0.727552 0.683493
v 0.079185 -1.085418 1.032277
vn 0.140645 -0.890425 0.432853
v 0.207299 -1.341644 0.637982
vn 0.353855 -0.727551 0.587756
v 0.542708 -1.085417 0.881668
# 162 vertices, 0 vertices normals

f 1//1 16//16 15//15
f 2//2 18//18 24//24
f 1//1 15//15 30//30
f 1//1 30//30 36//36
f 1//1 36//36 25//25
f 2//2 24//24 45//45
f 3//3 21//21 51//51
f 4//4 33//33 57//57
f 5//5 39//39 63//63
f 6//6 42//42 69//69
f 2//2 45//45 52//52
f 3//3 51//51 58//58
f 4//4 57//57 64//64
f 5//5 63//63 70//70
f 6//6 69//69 46//46
f 7//7 75//75 90//90
f 8//8 78//78 96//96
f 9//9 81//81 99//99
f 10//10 84//84 102//102
f 11//11 87//87 91//91
f 93//93 100//100 12//12
f 92//92 103//103 93//93
f 91//91 104//104 92//92
f 93//93 103//103 100//100
f 103//103 101//101 100//100
f 92//92 104//104 103//103
f 104//104 105//105 103//103
f 103//103 105//105 101//101
f 105//105 102//102 101//101
f 91//91 87//87 104//104
f 87//87 86//86 104//104
f 104//104 86//86 105//105
f 86//86 85//85 105//105
f 105//105 85//85 102//102
f 85//85 10//10 102//102
f 100//100 97//97 12//12
f 101//101 106//106 100//100
f 102//102 107//107 101//101
f 100//100 106//106 97//97
f 106//106 98//98 97//97
f 101//101 107//107 106//106
f 107//107 108//108 106//106
f 106//106 108//108 98//98
f 108//108 99//99 98//98
f 102//102 84//84 107//107
f 84//84 83//83 107//107
f 107//107 83//83 108//108
f 83//83 82//82 108//108
f 108//108 82//82 99//99
f 82//82 9//9 99//99
f 97//97 94//94 12//12
f 98//98 109//109 97//97
f 99//99 110//110 98//98
f 97//97 109//109 94//94
f 109//109 95//95 94//94
f 98//98 110//110 109//109
f 110//110 111//111 109//109
f 109//109 111//111 95//95
f 111//111 96//96 95//95
f 99//99 81//81 110//110
f 81//81 80//80 110//110
f 110//110 80//80 111//111
f 80//80 79//79 111//111
f 111//111 79//79 96//96
f 79//79 8//8 96//96
f 94//94 88//88 12//12
f 95//95 112//112 94//94
f 96//96 113//113 95//95
f 94//94 112//112 88//88
f 112//112 89//89 88//88
f 95//95 113//113 112//112
f 113//113 114//114 112//112
f 112//112 114//114 89//89
f 114//114 90//90 89//89
f 96//96 78//78 113//113
f 78//78 77//77 113//113
f 113//113 77//77 114//114
f 77//77 76//76 114//114
f 114//114 76//76 90//90
f 76//76 7//7 90//90
f 88//88 93//93 12//12
f 89//89 115//115 88//88
f 90//90 116//116 89//89
f 88//88 115//115 93//93
f 115//115 92//92 93//93
f 89//89 116//116 115//115
f 116//116 117//117 115//115
f 115//115 117//117 92//92
f 117//117 91//91 92//92
f 90//90 75//75 116//116
f 75//75 74//74 116//116
f 116//116 74//74 117//117
f 74//74 73//73 117//117
f 117//117 73//73 91//91
f 73//73 11//11 91//91
f 48//48 87//87 11//11
f 47//47 118//118 48//48
f 46//46 119//119 47//47
f 48//48 118//118 87//87
f 118//118 86//86 87//87
f 47//47 119//119 118//118
f 119//119 120//120 118//118
f 118//118 120//120 86//86
f 120//120 85//85 86//86
f 46//46 69//69 119//119
f 69//69 68//68 119//119
f 119//119 68//68 120//120
f 68//68 67//67 120//120
f 120//120 67//67 85//85
f 67//67 10//10 85//85
f 72//72 84//84 10//10
f 71//71 121//121 72//72
f 70//70 122//122 71//71
f 72//72 121//121 84//84
f 121//121 83//83 84//84
f 71//71 122//122 121//121
f 122//122 123//123 121//121
f 121//121 123//123 83//83
f 123//123 82//82 83//83
f 70//70 63//63 122//122
f 63//63 62//62 122//122
f 122//122 62//62 123//123
f 62//62 61//61 123//123
f 123//123 61//61 82//82
f 61//61 9//9 82//82
f 66//66 81//81 9//9
f 65//65 124//124 66//66
f 64//64 125//125 65//65
f 66//66 124//124 81//81
f 124//124 80//80 81//81
f 65//65 125//125 124//124
f 125//125 126//126 124//124
f 124//124 126//126 80//80
f 126//126 79//79 80//80
f 64//64 57//57 125//125
f 57//57 56//56 125//125
f 125//125 56//56 126//126
f 56//56 55//55 126//126
f 126//126 55//55 79//79
f 55//55 8//8 79//79
f 60//60 78//78 8//8
f 59//59 127//127 60//60
f 58//58 128//128 59//59
f 60//60 127//127 78//78
f 127//127 77//77 78//78
f 59//59 128//128 127//127
f 128//128 129//129 127//127
f 127//127 129//129 77//77
f 129//129 76//76 77//77
f 58//58 51//51 128//128
f 51//51 50//50 128//128
f 128//128 50//50 129//129
f 50//50 49//49 129//129
f 129//129 49//49 76//76
f 49//49 7//7 76//76
f 54//54 75//75 7//7
f 53//53 130//130 54//54
f 52//52 131//131 53//53
f 54//54 130//130 75//75
f 130//130 74//74 75//75
f 53//53 131//131 130//130
f 131//131 132//132 130//130
f 130//130 132//132 74//74
f 132//132 73//73 74//74
f 52//52 45//45 131//131
f 45//45 44//44 131//131
f 131//131 44//44 132//132
f 44//44 43//43 132//132
f 132//132 43//43 73//73
f 43//43 11//11 73//73
f 67//67 72//72 10//10
f 68//68 133//133 67//67
f 69//69 134//134 68//68
f 67//67 133//133 72//72
f 133//133 71//71 72//72
f 68//68 134//134 133//133
f 134//134 135//135 133//133
f 133//133 135//135 71//71
f 135//135 70//70 71//71
f 69//69 42//42 134//134
f 42//42 41//41 134//134
f 134//134 41//41 135//135
f 41//41 40//40 135//135
f 135//135 40//40 70//70
f 40//40 5//5 70//70
f 61//61 66//66 9//9
f 62//62 136//136 61//61
f 63//63 137//137 62//62
f 61//61 136//136 66//66
f 136//136 65//65 66//66
f 62//62 137//137 136//136
f 137//137 138//138 136//136
f 136//136 138//138 65//65
f 138//138 64//64 65//65
f 63//63 39//39 137//137
f 39//39 38//38 137//137
f 137//137 38//38 138//138
f 38//38 37//37 138//138
f 138//138 37//37 64//64
f 37//37 4//4 64//64
f 55//55 60//60 8//8
f 56//56 139//139 55//55
f 57//57 140//140 56//56
f 55//55 139//139 60//60
f 139//139 59//59 60//60
f 56//56 140//140 139//139
f 140//140 141//141 139//139
f 139//139 141//141 59//59
f 141//141 58//58 59//59
f 57//57 33//33 140//140
f 33//33 32//32 140//140
f 140//140 32//32 141//141
f 32//32 31//31 141//141
f 141//141 31//31 58//58
f 31//31 3//3 58//58
f 49//49 54//54 7//7
f 50//50 142//142 49//49
f 51//51 143//143 50//50
f 49//49 142//142 54//54
f 142//142 53//53 54//54
f 50//50 143//143 142//142
f 143//143 144//144 142//142
f 142//142 144//144 53//53
f 144//144 52//52 53//53
f 51//51 21//21 143//143
f 21//21 20//20 143//143
f 143//143 20//20 144//144
f 20//20 19//19 144//144
f 144//144 19//19 52//52
f 19//19 2//2 52//52
f 43//43 48//48 11//11
f 44//44 145//145 43//43
f 45//45 146//146 44//44
f 43//43 145//145 48//48
f 145//145 47//47 48//48
f 44//44 146//146 145//145
f 146//146 147//147 145//145
f 145//145 147//147 47//47
f 147//147 46//46 47//47
f 45//45 24//24 146//146
f 24//24 23//23 146//146
f 146//146 23//23 147//147
f 23//23 22//22 147//147
f 147//147 22//22 46//46
f 22//22 6//6 46//46
f 27//27 42//42 6//6
f 26//26 148//148 27//27
f 25//25 149//149 26//26
f 27//27 148//148 42//42
f 148//148 41//41 42//42
f 26//26 149//149 148//148
f 149//149 150//150 148//148
f 148//148 150//150 41//41
f 150//150 40//40 41//41
f 25//25 36//36 149//149
f 36//36 35//35 149//149
f 149//149 35//35 150//150
f 35//35 34//34 150//150
f 150//150 34//34 40//40
f 34//34 5//5 40//40
f 34//34 39//39 5//5
f 35//35 151//151 34//34
f 36//36 152//152 35//35
f 34//34 151//151 39//39
f 151//151 38//38 39//39
f 35//35 152//152 151//151
f 152//152 153//153 151//151
f 151//151 153//153 38//38
f 153//153 37//37 38//38
f 36//36 30//30 152//152
f 30//30 29//29 152//152
f 152//152 29//29 153//153
f 29//29 28//28 153//153
f 153//153 28//28 37//37
f 28//28 4//4 37//37
f 28//28 33//33 4//4
f 29//29 154//154 28//28
f 30//30 155//155 29//29
f 28//28 154//154 33//33
f 154//154 32//32 33//33
f 29//29 155//155 154//154
f 155//155 156//156 154//154
f 154//154 156//156 32//32
f 156//156 31//31 32//32
f 30//30 15//15 155//155
f 15//15 14//14 155//155
f 155//155 14//14 156//156
f 14//14 13//13 156//156
f 156//156 13//13 31//31
f 13//13 3//3 31//31
f 22//22 27//27 6//6
f 23//23 157//157 22//22
f 24//24 158//158 23//23
f 22//22 157//157 27//27
f 157//157 26//26 27//27
f 23//23 158//158 157//157
f 158//158 159//159 157//157
f 157//157 159//159 26//26
f 159//159 25//25 26//26
f 24//24 18//18 158//158
f 18//18 17//17 158//158
f 158//158 17//17 159//159
f 17//17 16//16 159//159
f 159//159 16//16 25//25
f 16//16 1//1 25//25
f 13//13 21//21 3//3
f 14//14 160//160 13//13
f 15//15 161//161 14//14
f 13//13 160//160 21//21
f 160//160 20//20 21//21
f 14//14 161//161 160//160
f 161//161 162//162 160//160
f 160//160 162//162 20//20
f 162//162 19//19 20//20
f 15//15 16//16 161//161
f 16//16 17//17 161//161
f 161//161 17//17 162//162
f 17//17 18//18 162//162
f 162//162 18//18 19//19
f 18//18 2//2 19//19
# 320 faces, 0 coords texture

# End of File
